<svg xmlns="http://www.w3.org/2000/svg" viewBox="0 0 800 600" role="img" aria-label="Aurya Food — Bebidas">
  <defs>
    <linearGradient id="bg" x1="0%" y1="0%" x2="100%" y2="100%">
      <stop offset="0%" stop-color="#0e7490"/>
      <stop offset="100%" stop-color="#06b6d4"/>
    </linearGradient>
    <linearGradient id="liquid" x1="0%" y1="0%" x2="0%" y2="100%">
      <stop offset="0%" stop-color="#fcd34d"/>
      <stop offset="100%" stop-color="#b45309"/>
    </linearGradient>
    <linearGradient id="glass" x1="0%" y1="0%" x2="100%" y2="0%">
      <stop offset="0%" stop-color="#fff" stop-opacity="0.55"/>
      <stop offset="50%" stop-color="#fff" stop-opacity="0.15"/>
      <stop offset="100%" stop-color="#fff" stop-opacity="0.4"/>
    </linearGradient>
  </defs>
  <rect width="800" height="600" fill="url(#bg)"/>
  <g transform="translate(400 300)">
    <ellipse cx="0" cy="180" rx="140" ry="14" fill="#000" opacity="0.2"/>
    <path d="M -110 -180 L 110 -180 L 95 180 L -95 180 Z" fill="url(#liquid)"/>
    <path d="M -110 -180 L 110 -180 L 95 180 L -95 180 Z" fill="url(#glass)"/>
    <ellipse cx="0" cy="-180" rx="110" ry="22" fill="#fff" opacity="0.85"/>
    <g fill="#fff" opacity="0.7">
      <circle cx="-50" cy="-100" r="7"/>
      <circle cx="20" cy="-60" r="5"/>
      <circle cx="60" cy="-110" r="6"/>
      <circle cx="-30" cy="-20" r="4"/>
      <circle cx="40" cy="40" r="5"/>
      <circle cx="-60" cy="80" r="4"/>
      <circle cx="0" cy="120" r="6"/>
    </g>
    <rect x="-12" y="-220" width="24" height="80" fill="#fff" opacity="0.9" rx="4"/>
    <path d="M 12 -210 L 80 -260 L 80 -250 L 22 -200 Z" fill="#fbbf24"/>
  </g>
  <text x="400" y="510" font-family="'Segoe UI', Arial, sans-serif" font-size="40" font-weight="800" fill="#fff" text-anchor="middle" letter-spacing="3">BEBIDAS</text>
  <text x="400" y="550" font-family="'Segoe UI', Arial, sans-serif" font-size="18" fill="#fff" opacity="0.7" text-anchor="middle" letter-spacing="2">AURYA FOOD</text>
</svg>
