<svg xmlns="http://www.w3.org/2000/svg" viewBox="0 0 800 600" role="img" aria-label="Aurya Food — Lanches">
  <defs>
    <linearGradient id="bg" x1="0%" y1="0%" x2="100%" y2="100%">
      <stop offset="0%" stop-color="#7c3aed"/>
      <stop offset="100%" stop-color="#a855f7"/>
    </linearGradient>
    <linearGradient id="bun" x1="0%" y1="0%" x2="0%" y2="100%">
      <stop offset="0%" stop-color="#fde68a"/>
      <stop offset="100%" stop-color="#d97706"/>
    </linearGradient>
    <radialGradient id="seedShine" cx="50%" cy="50%" r="50%">
      <stop offset="0%" stop-color="#fff" stop-opacity="0.7"/>
      <stop offset="100%" stop-color="#fff" stop-opacity="0"/>
    </radialGradient>
  </defs>
  <rect width="800" height="600" fill="url(#bg)"/>
  <g transform="translate(400 300)">
    <ellipse cx="0" cy="120" rx="240" ry="22" fill="#000" opacity="0.18"/>
    <path d="M -220 -10 Q -220 -130 0 -130 Q 220 -130 220 -10 Z" fill="url(#bun)"/>
    <ellipse cx="-100" cy="-90" rx="14" ry="8" fill="url(#seedShine)"/>
    <ellipse cx="-30" cy="-115" rx="14" ry="8" fill="url(#seedShine)"/>
    <ellipse cx="60" cy="-100" rx="14" ry="8" fill="url(#seedShine)"/>
    <ellipse cx="140" cy="-80" rx="14" ry="8" fill="url(#seedShine)"/>
    <rect x="-220" y="-12" width="440" height="26" rx="6" fill="#65a30d"/>
    <rect x="-220" y="10" width="440" height="22" rx="4" fill="#facc15"/>
    <rect x="-220" y="28" width="440" height="34" rx="6" fill="#7c2d12"/>
    <rect x="-220" y="58" width="440" height="24" rx="4" fill="#dc2626"/>
    <path d="M -220 80 Q -220 140 0 140 Q 220 140 220 80 Z" fill="url(#bun)"/>
  </g>
  <text x="400" y="500" font-family="'Segoe UI', Arial, sans-serif" font-size="40" font-weight="800" fill="#fff" text-anchor="middle" letter-spacing="3">LANCHES</text>
  <text x="400" y="540" font-family="'Segoe UI', Arial, sans-serif" font-size="18" fill="#fff" opacity="0.7" text-anchor="middle" letter-spacing="2">AURYA FOOD</text>
</svg>
