<svg xmlns="http://www.w3.org/2000/svg" viewBox="0 0 800 600" role="img" aria-label="Aurya Food — Pizzas">
  <defs>
    <linearGradient id="bg" x1="0%" y1="0%" x2="100%" y2="100%">
      <stop offset="0%" stop-color="#b91c1c"/>
      <stop offset="100%" stop-color="#dc2626"/>
    </linearGradient>
    <radialGradient id="crust" cx="50%" cy="50%" r="50%">
      <stop offset="80%" stop-color="#fde68a"/>
      <stop offset="100%" stop-color="#a16207"/>
    </radialGradient>
    <radialGradient id="cheese" cx="50%" cy="50%" r="50%">
      <stop offset="0%" stop-color="#fef3c7"/>
      <stop offset="100%" stop-color="#fbbf24"/>
    </radialGradient>
  </defs>
  <rect width="800" height="600" fill="url(#bg)"/>
  <g transform="translate(400 270)">
    <ellipse cx="0" cy="190" rx="190" ry="18" fill="#000" opacity="0.2"/>
    <circle cx="0" cy="0" r="180" fill="url(#crust)"/>
    <circle cx="0" cy="0" r="158" fill="url(#cheese)"/>
    <g fill="#b91c1c">
      <circle cx="-80" cy="-60" r="22"/>
      <circle cx="60" cy="-90" r="20"/>
      <circle cx="100" cy="40" r="24"/>
      <circle cx="-50" cy="80" r="22"/>
      <circle cx="-110" cy="20" r="18"/>
      <circle cx="40" cy="100" r="20"/>
      <circle cx="0" cy="-30" r="16"/>
    </g>
    <g fill="#15803d" opacity="0.85">
      <path d="M -30 -100 l 12 0 l -6 12 z"/>
      <path d="M 110 -20 l 12 0 l -6 12 z"/>
      <path d="M -130 70 l 12 0 l -6 12 z"/>
      <path d="M 80 80 l 12 0 l -6 12 z"/>
    </g>
    <g stroke="#a16207" stroke-width="2" fill="none">
      <line x1="0" y1="-178" x2="0" y2="178"/>
      <line x1="-178" y1="0" x2="178" y2="0"/>
      <line x1="-126" y1="-126" x2="126" y2="126"/>
      <line x1="-126" y1="126" x2="126" y2="-126"/>
    </g>
  </g>
  <text x="400" y="500" font-family="'Segoe UI', Arial, sans-serif" font-size="40" font-weight="800" fill="#fff" text-anchor="middle" letter-spacing="3">PIZZAS</text>
  <text x="400" y="540" font-family="'Segoe UI', Arial, sans-serif" font-size="18" fill="#fff" opacity="0.7" text-anchor="middle" letter-spacing="2">AURYA FOOD</text>
</svg>
